<svg xmlns="http://www.w3.org/2000/svg" xml:space="preserve" width="627.87" height="156.222" viewBox="0 0 166.124 41.334"><defs><clipPath id="b" clipPathUnits="userSpaceOnUse"><path d="M115.123 169.624c-.241-.097-.323-.974-.3-3.22.017-1.698.106-4.278.198-5.733l.168-2.646.983-.082c.908-.075.995-.156 1.142-1.058.088-.537.21-1.274.274-1.638.063-.364.291-3.46.508-6.88.216-3.42.468-7.348.56-8.73.098-1.476.328-2.77.555-3.134.293-.468.529-.576.961-.438.315.1 1.823.2 3.351.223 2.545.038 2.897.107 4.196.826.78.432 1.837 1.266 2.348 1.853.512.586 1.217 1.68 1.566 2.43.353.755.709 2.135.798 3.095.094 1.007.025 2.427-.164 3.39-.18.913-.613 2.224-.963 2.914-.35.691-.999 1.67-1.442 2.174-.443.505-1.42 1.224-2.17 1.598-.865.431-1.802.678-2.567.677-.663 0-1.626-.118-2.14-.26-.515-.144-1.487-.61-2.162-1.039-1.01-.64-1.254-.707-1.38-.378-.084.22-.153 1.392-.153 2.606v2.206l.811.178c.447.098.885.368.974.6.09.232.013 2.096-.17 4.143-.196 2.196-.505 4.085-.754 4.61-.232.491-.789 1.116-1.237 1.389-.528.322-1.28.49-2.138.477-.727-.01-1.471-.08-1.653-.153zm3.456-5.844c.084-.546.232-1.838.33-2.872.171-1.82.157-1.885-.449-2.047-.344-.092-.769-.169-.944-.17-.175-.003-.38.382-.453.855-.073.473-.207 1.773-.297 2.89-.159 1.972-.146 2.032.453 2.146.338.065.75.134.913.154.163.02.364-.41.447-.956zm7.303-11.697c.558-.284 1.346-.91 1.75-1.389a9.559 9.559 0 0 0 1.203-1.93c.256-.582.547-1.613.646-2.292.1-.685.047-1.863-.12-2.646-.165-.776-.706-2.024-1.202-2.774-.68-1.027-1.264-1.54-2.375-2.083-1.216-.595-1.727-.7-2.925-.6-.799.066-1.52.19-1.605.273-.084.085-.445 2.74-.802 5.902-.606 5.37-.62 5.78-.208 6.236.242.267 1.043.787 1.78 1.154.736.367 1.677.667 2.09.667.415 0 1.21-.233 1.768-.518zm-.885-1.75c-.228-.228-.416-.69-.416-1.026 0-.335.183-.761.405-.946.31-.257.559-.266 1.059-.038.47.214.653.507.653 1.044 0 .411-.143.89-.317 1.064-.175.175-.464.318-.643.318s-.512-.187-.74-.416zm1.284-3.937c-.1-.398-.035-.845.155-1.074.18-.217.536-.394.791-.394.256 0 .607.172.782.382.174.21.278.657.23.993-.066.47-.28.628-.936.692-.725.07-.877-.02-1.022-.599zm-1.284-3.207c-.228-.228-.416-.696-.416-1.039 0-.343.192-.815.425-1.048a.986.986 0 0 1 .992-.257c.313.092.717.357.899.589.181.23.33.584.33.784 0 .2-.123.594-.274.875-.153.288-.551.512-.907.512-.348 0-.82-.187-1.049-.416zm-4.94-4.957c.016-.61-.078-.944-.238-.845-.146.09-.253.842-.238 1.67.02 1.153.076 1.35.238.844.116-.364.224-1.115.238-1.67zm-67.84 28.205c-.29-.068-1.302-.883-2.248-1.81-.946-.926-2.148-1.862-2.672-2.08-.523-.217-1.949-.52-3.168-.672-1.219-.153-4.283-.278-6.81-.278-2.526 0-6.935-.126-9.796-.279-4.283-.23-5.32-.363-5.864-.754-.484-.347-.683-.763-.742-1.543-.067-.903.035-1.16.662-1.66.72-.575.868-.588 5.107-.437 2.4.085 5.973.398 7.937.695 1.965.297 3.93.648 4.366.781.44.134.583.251.32.264-.261.012-1.333-.146-2.382-.352-1.049-.206-3.038-.5-4.42-.652-1.383-.153-3.05-.298-3.705-.323-.655-.024-1.315-.028-1.468-.009-.157.02-.237.467-.185 1.028.088.936.07.963-.317.479-.226-.283-.41-.789-.41-1.125 0-.56-.116-.61-1.374-.61-1.221 0-1.32.04-.883.358.3.22.425.527.323.794-.092.239-.335.435-.54.435-.205 0-.52-.177-.7-.394-.179-.216-.253-.583-.164-.816.104-.268.042-.382-.168-.313-.182.06-.367.407-.41.772-.045.365.104.817.33 1.004.272.226 1.948.418 4.974.57 2.51.127 6.112.355 8.004.507 1.892.152 4.69.457 6.217.677 1.528.22 3.493.595 4.366.834 1.369.375 1.886.719 3.751 2.5 1.734 1.657 2.324 2.067 2.972 2.067.445 0 2.217-.297 3.936-.66 1.72-.363 3.745-.844 4.5-1.068 1.022-.303 1.41-.56 1.522-1.004.082-.327.024-.926-.13-1.33-.153-.404-.27-.935-.258-1.18.011-.246.202.065.423.69.22.624.326 1.436.234 1.803-.11.441-.497.805-1.139 1.073-.534.223-2.464.737-4.29 1.143-1.825.405-3.736.796-4.245.868-.51.072-1.164.076-1.455.007zm-13.648-5.48c-.062-.062-2.355-.3-5.097-.53-2.742-.23-6.426-.418-8.188-.418-2.163 0-3.115.087-2.934.269.148.147 2.106.368 4.352.49 2.247.122 5.86.24 8.031.26 2.171.022 3.897-.01 3.836-.072zm-17.148-2.459c-.254-.437-.276-.43-.284.078-.004.303.08.638.185.744.106.106.234.071.284-.078.05-.149-.034-.484-.185-.744zm142.319 6.164a696.37 696.37 0 0 1-6.086-1.82c-2.692-.815-5.413-1.615-6.046-1.778l-1.152-.296.184-1.24c.102-.68.226-1.281.277-1.334.051-.052.8.143 1.664.435l1.572.53 2.412-3.061 2.412-3.062-1.389-.746c-.764-.41-1.832-1.234-2.374-1.83-.546-.602-1.061-1.494-1.157-2-.094-.504-.1-1.353-.014-1.887.087-.534.376-1.271.643-1.639.267-.367 1.01-.935 1.65-1.263.853-.435 1.63-.596 2.896-.6l1.73-.005-1.456-.79c-.8-.436-1.857-1.223-2.35-1.75l-.895-.959.179-2.28c.098-1.255.249-3.209.334-4.343.149-1.97.193-2.081.981-2.513.638-.35 1.431-.445 3.494-.42l2.669.031-.12-.627c-.111-.583-.038-.626 1.035-.62.636.002 1.662.235 2.28.515.619.281 1.125.688 1.125.905 0 .217-.12.468-.265.558-.145.09-.264.259-.264.376 0 .117.785.6 1.745 1.072.96.473 2.27 1.362 2.91 1.975.8.766 1.154 1.317 1.13 1.757-.032.564-.05.574-.146.086-.06-.306-.43-.928-.824-1.384-.393-.456-1.41-1.24-2.26-1.745l-1.546-.915-.76.778c-.419.428-.922.778-1.119.778-.196 0-.967-.181-1.711-.402-1.057-.314-1.446-.585-1.768-1.232-.228-.456-.414-.98-.414-1.166 0-.21-.54-.405-1.428-.516-.785-.098-1.827-.095-2.315.007-.488.102-1.157.357-1.487.566l-.6.38.83 1.033c.456.568 1.023 1.101 1.26 1.185.238.083.135-.094-.229-.395-.597-.494-.532-.486.662.085a50.06 50.06 0 0 0 2.778 1.2c.8.313 2.586.868 3.969 1.234 1.382.366 3.131.666 3.887.666.755 0 1.447.12 1.537.265.09.146.467.265.837.265.495 0 .632.106.514.397l-.3.738c-.105.257.923.487 4.167.934 2.369.326 5.083.755 6.032.955.95.2 2.23.498 2.845.664.924.249 1.118.412 1.118.942s-.194.693-1.12.943c-.942.253-1.479.213-3.392-.256-1.25-.307-3.216-.67-4.37-.808a63.114 63.114 0 0 0-4.066-.329c-1.9-.076-1.975-.056-2.166.582-.172.574-.194.538-.168-.264.018-.51.01-1.373-.016-1.918-.026-.546-.167-.993-.312-.993-.146 0-.267.209-.269.463-.002.255-.23 1.356-.508 2.448-.277 1.091-.586 2.193-.686 2.447-.106.272-.06.463.112.463.16 0 .53-.238.822-.529.29-.291.529-.413.529-.27 0 .142-.29.448-.645.68-.355.233-1.218.511-1.918.619l-1.274.195.86.203c.473.111.86.26.86.329 0 .07-.133.655-.296 1.302-.163.646-.398 1.175-.523 1.175s-1.007-.293-1.96-.652c-.953-.358-2.617-.835-3.699-1.058-1.081-.223-2.596-.405-3.366-.402-.77.002-1.694.152-2.053.334-.369.186-.76.704-.899 1.189-.2.7-.153.962.256 1.414.276.306 1.037.824 1.692 1.151.655.328 2.739 1.106 4.63 1.728 1.892.623 3.857 1.343 4.366 1.602.51.258 1.3.866 1.756 1.352.457.486 1.037 1.292 1.289 1.791.35.695.43 1.346.336 2.778-.076 1.165-.328 2.27-.67 2.929-.3.582-.893 1.388-1.318 1.79-.424.404-1.178.85-1.676.993-.497.143-1.203.251-1.567.241-.365-.01-1.2-.17-1.854-.356zm2.064-2.822c.569-.198.986-.629 1.362-1.406.298-.617.543-1.628.543-2.248 0-.879-.162-1.29-.732-1.86-.402-.401-1.38-.946-2.173-1.21l-1.44-.478-1.145 1.297a79.667 79.667 0 0 0-2.344 2.819c-.832 1.057-1.092 1.563-.85 1.656.192.073 1.54.48 2.995.905 1.455.425 2.717.78 2.805.792.087.01.528-.11.979-.267zm-5.792-4.741c1.595-1.926 2.262-2.91 1.97-2.91-.242 0-.869.499-1.392 1.11-.523.61-1.517 1.815-2.208 2.679-.691.863-1.257 1.674-1.257 1.8 0 .127.107.231.238.231s1.323-1.31 2.649-2.91zm-1.9-.198c1.146-1.42 2.175-2.729 2.284-2.91.125-.207.05-.332-.198-.332-.22 0-1.328 1.14-2.463 2.535-1.136 1.393-2.16 2.703-2.277 2.91-.14.25-.081.376.178.376.215 0 1.328-1.16 2.475-2.58zm10.896-13.446c.205-.193.648-1.572.983-3.064.336-1.492.584-2.723.553-2.736-.032-.012-1.065-.223-2.296-.468-1.617-.321-2.289-.363-2.42-.15-.1.163-.374 1.337-.606 2.61-.233 1.273-.424 2.565-.424 2.872 0 .319-.17.557-.397.557-.218 0-.397-.039-.397-.086 0-.047.244-1.437.54-3.087.298-1.65.48-3.16.406-3.354-.074-.194-.369-.352-.654-.352-.414 0-.574.28-.795 1.389-.152.764-.41 2.193-.575 3.175-.202 1.21-.418 1.786-.669 1.786a.37.37 0 0 1-.37-.368c0-.202.239-1.525.53-2.94.29-1.414.53-2.78.53-3.035 0-.312-.412-.616-1.258-.928-.69-.255-1.894-.815-2.672-1.244-.779-.43-1.448-.743-1.486-.697-.04.046-.206 1.011-.37 2.145-.165 1.134-.3 2.542-.3 3.13 0 .837.164 1.22.764 1.774.42.39.959.864 1.196 1.054.238.191.877.539 1.419.772.542.234 2.058.756 3.368 1.16 1.816.56 2.695.7 3.704.586.727-.082 1.49-.307 1.696-.5zm4.786-3.554c0-.388-.176-.53-.661-.53-.364 0-.662.05-.662.112 0 .06-.072.299-.16.529-.126.326.02.418.66.418.647 0 .823-.113.823-.529zm0-1.058c0-.146-.179-.265-.397-.265-.218 0-.397.12-.397.265 0 .145.179.264.397.264.218 0 .397-.119.397-.264zm-3.503-2.299c-.253-.066-.729-.068-1.058-.005-.33.064-.122.118.46.12.582.004.851-.048.598-.114zm-2.125-.242c-.088-.088-.316-.098-.507-.021-.211.084-.148.147.16.16.279.011.435-.051.347-.14zM53.262 164.484a.455.455 0 0 1 .067-.532c.134-.134 1.428-.47 2.874-.744 1.446-.275 3.314-.585 4.15-.69 1.28-.158 1.522-.123 1.522.221 0 .225-.208.47-.463.544-.254.074-2.029.439-3.943.811-1.914.373-3.604.678-3.755.678-.15 0-.354-.13-.452-.288zm4.38-.802c.946-.174 1.565-.368 1.377-.433-.189-.064-1.38.086-2.646.333-1.267.248-2.402.543-2.523.656-.12.113.296.106.926-.017.63-.123 1.92-.365 2.866-.539zm2.981-.671c-.179-.073-.536-.077-.793-.01-.258.067-.111.126.325.132.437.005.648-.05.468-.122zm-10.485.254c-.093-.093-.169-.513-.169-.934 0-.42-.131-1.286-.292-1.924-.16-.638-.234-1.315-.163-1.506.071-.192.376.184.683.844.305.655.557 1.69.56 2.3.003.61-.097 1.171-.222 1.249-.125.077-.304.064-.397-.029zm1.418-.821c0-.117.143-.355.318-.53.175-.174.54-.317.813-.317.33 0 .466-.155.405-.463-.064-.332-.352-.467-1.01-.477-.65-.01-.946-.146-1.007-.465-.063-.323.145-.499.726-.615.548-.11.814-.319.814-.64 0-.289-.228-.512-.575-.563-.316-.046-.626-.241-.69-.433-.062-.191.137-.413.443-.494.332-.086.557-.359.557-.673 0-.465-.118-.507-.992-.352-.546.097-1.19.234-1.43.304-.241.07-.638.63-.881 1.243-.244.613-.693 1.382-.997 1.71-.38.407-.854.593-1.5.588-.52-.004-2.256-.35-3.857-.77-1.6-.42-2.747-.773-2.546-.787.2-.013 1.7.291 3.335.676 1.804.425 3.248.63 3.677.523.532-.134.861-.528 1.337-1.604.346-.784.852-1.544 1.123-1.69.27-.144.936-.346 1.48-.448.884-.166.987-.27.987-.997 0-.656-.378-1.188-1.98-2.79l-1.98-1.98.808-1.412c.705-1.233.873-1.378 1.318-1.14.311.167.51.175.51.02 0-.139-.532-3.493-1.183-7.454s-1.236-7.255-1.3-7.32c-.065-.064-.664.125-1.33.42-.668.295-1.213.468-1.213.385 0-.083.506-.96 1.124-1.948.619-.988 1.389-1.921 1.712-2.073.323-.153 1.304-.463 2.18-.69.876-.227 2.696-.517 4.043-.644 1.403-.133 3.428-.133 4.738 0 1.258.127 2.984.492 3.836.81 1.13.422 1.985 1.015 3.16 2.19 1.17 1.17 1.777 2.044 2.22 3.198.379.99.656 2.401.736 3.75.1 1.707.011 2.54-.426 3.968-.305.994-1.036 2.54-1.625 3.437-.59.896-1.783 2.288-2.653 3.094-.87.805-2.453 1.894-3.519 2.421-1.545.764-2.36.99-4.02 1.116l-2.082.157.91.771c.5.424 1.26.956 1.689 1.182.428.226 1.194.438 1.701.472.63.042 1.122.294 1.55.792.346.4 1.218.953 1.94 1.228.722.274 1.936.495 2.698.492.778-.003 1.865-.223 2.476-.5.6-.272 1.284-.772 1.521-1.112.238-.339.432-1.058.432-1.599 0-.54-.113-1.28-.252-1.644-.138-.365-.502-.797-.809-.961-.306-.164-.907-.222-1.335-.128-.529.116-.779.333-.779.674 0 .316.246.565.661.67.364.09.853.092 1.088.001.324-.124.385-.052.25.303-.096.256-.437.852-.756 1.324-.48.707-.753.858-1.558.86-.712 0-1.09-.159-1.39-.587-.226-.323-.409-.889-.406-1.256.004-.368.225-1.15.492-1.738.267-.589.863-1.387 1.325-1.776.461-.388 1.24-.781 1.732-.873.6-.113 1.214-.015 1.877.3.684.324 1.136.797 1.476 1.546.292.643.492 1.695.495 2.608.003.841-.16 1.925-.361 2.409-.202.484-.817 1.328-1.366 1.877-.549.55-1.544 1.244-2.212 1.545-.877.395-1.825.558-3.414.587-1.489.027-2.66-.112-3.621-.43-1.21-.398-1.701-.427-3.298-.19-1.738.258-1.864.32-1.704.841.095.31.19.585.213.614.022.028.514-.049 1.092-.17a35.854 35.854 0 0 1 2.462-.394c1.264-.155 1.401-.124 1.32.302-.076.391-.79.6-4.057 1.191-2.181.394-4.353.722-4.826.728-.473.006-.86-.084-.86-.2zm6.747-1.112.794-.202-.926-.012c-.51-.007-1.164.09-1.455.214-.48.207-.468.227.132.215a7.811 7.811 0 0 0 1.455-.215zm2.056-.438c-.18-.072-.536-.077-.794-.01-.257.067-.11.127.326.132.436.005.647-.05.468-.122zm-7.48-.89c0-.16-.295-.198-.727-.095-.4.096-.777.218-.838.27-.06.052.267.095.728.095.46 0 .837-.121.837-.27zm5.667-.785c.279-.002.423-.088.32-.191-.104-.103-.69-.153-1.302-.111-.612.042-1.232.201-1.377.354-.184.193.058.228.793.114.583-.09 1.287-.165 1.566-.166zm-1.076-1.09c-.415-.274-.893-.498-1.063-.5-.17 0-.369-.15-.442-.332-.073-.182-.143.037-.154.485-.012.45.032.87.097.935.066.065.613.071 1.217.014l1.099-.105zm-5.12-.236a.265.265 0 0 0-.264-.265.265.265 0 0 0-.265.265.265.265 0 0 0 .53 0zm8.491-1.955c-.168-.203-.599-.424-.958-.493-.36-.069-.654-.086-.654-.038 0 .048.328.265.728.482.4.217.831.4.958.406.127.006.094-.155-.074-.357zm-5.58-6.872c0-.198-.655-3.943-1.456-8.324-.8-4.38-1.455-8.087-1.455-8.239 0-.151-.178-.275-.397-.275-.218 0-.397.086-.397.19 0 .104.604 3.825 1.342 8.268.738 4.443 1.389 8.227 1.447 8.41.058.181.288.33.51.33.223 0 .406-.162.406-.36zm1.85.294c0-.037-.533-3.923-1.183-8.636-.65-4.713-1.24-8.627-1.31-8.697-.07-.07-.405-.057-.745.028l-.618.155 1.393 7.748c.766 4.262 1.461 8.135 1.544 8.608.089.507.309.86.536.86.212 0 .384-.03.383-.066zm5.22-1.264c.906-.414 2.237-1.305 2.959-1.98 1.063-.994 1.367-1.481 1.6-2.567.208-.97.206-1.786-.006-2.957-.162-.89-.603-2.271-.981-3.07-.378-.8-1.205-2.008-1.838-2.684-.642-.686-1.735-1.481-2.471-1.798-.727-.313-2.333-.699-3.57-.859-1.238-.16-2.287-.244-2.332-.188-.046.057.481 3.913 1.17 8.57.69 4.656 1.266 8.503 1.281 8.549.015.045.594.005 1.285-.091.691-.095 1.998-.511 2.903-.925zm-4.326-6.78c-.097-.387-.057-.893.09-1.125.145-.232.466-.462.712-.51.246-.049.62.055.832.23.211.176.384.579.384.896 0 .316-.143.719-.317.893-.175.175-.59.318-.921.318-.433 0-.654-.2-.78-.703zm85.015 18.682c-.7-.118-1.902-.412-2.673-.654-.77-.243-1.983-.88-2.696-1.418-.712-.538-1.685-1.627-2.16-2.42-.476-.793-.989-1.86-1.14-2.372-.152-.511-.345-1.907-.43-3.102-.091-1.302-.022-2.835.174-3.83.18-.912.543-2.077.808-2.59.265-.513.938-1.373 1.496-1.911s1.73-1.312 2.602-1.72c1.396-.652 1.892-.74 4.101-.733 1.97.007 2.775.128 3.723.56.665.302 1.64.994 2.166 1.535.526.542 1.143 1.532 1.37 2.2.228.668.414 1.77.414 2.448v1.233l-2.183-.48c-1.2-.265-4.13-.841-6.51-1.281-2.379-.44-4.492-.8-4.696-.8-.203 0-.37.216-.37.478 0 .405.457.55 2.977.948 1.638.259 4.465.762 6.284 1.119 1.82.356 3.516.712 3.77.79.255.077.464.315.464.528a.62.62 0 0 1-.376.532c-.207.079-1.904-.16-3.77-.53a271.75 271.75 0 0 0-6.555-1.204c-1.737-.292-3.225-.465-3.305-.385-.08.08-.133 1.06-.117 2.177.02 1.401.211 2.503.616 3.56.323.841.969 2.031 1.436 2.644.468.613 1.315 1.375 1.882 1.693.567.318 1.762.706 2.655.862.893.155 2.537.282 3.653.282h2.029v.898c0 .575-.151.956-.419 1.058-.23.089-1.212.147-2.183.13-.97-.017-2.337-.127-3.037-.245zm5.638-15.4c-.001-.183-.234-.713-.52-1.18-.284-.468-1.028-1.11-1.652-1.43-.697-.355-1.825-.628-2.922-.707-1.276-.092-2.107-.005-2.91.304-.618.237-1.48.718-1.916 1.068l-.793.636 1.322.181c.727.1 3.048.454 5.158.786 2.11.332 3.926.619 4.035.638.11.019.198-.115.198-.297zm-70.499 11.409c-.575-.135-1.608-.606-2.295-1.046-.686-.441-1.538-1.182-1.892-1.647-.354-.465-.908-1.364-1.23-1.998-.323-.634-.755-1.943-.96-2.91-.205-.967-.375-2.498-.377-3.402a9.318 9.318 0 0 1 .547-3.118c.35-.938 1.081-2.046 2.008-3.048.949-1.024 2.026-1.85 3.087-2.366.896-.436 2.322-.897 3.168-1.026.877-.132 2.067-.134 2.769-.003.677.127 1.67.52 2.206.876.617.408 1.222 1.16 1.65 2.047.371.772.75 1.72.843 2.107.166.698.152.706-1.642.884-.995.099-3.972.466-6.616.817-2.645.35-4.937.638-5.094.638-.157 0-.285.238-.285.529 0 .291.09.528.198.526.11-.002 2.178-.292 4.597-.645 2.418-.353 5.425-.725 6.68-.827 1.556-.126 2.283-.095 2.283.097 0 .155-.187.469-.415.698-.23.228-.795.418-1.257.42-.463.004-2.15.179-3.752.39-1.6.212-4.18.58-5.733.817l-2.823.433.135.963c.074.53.321 1.56.549 2.287.228.728.684 1.752 1.013 2.277.33.524 1.09 1.373 1.69 1.887.6.513 1.61 1.079 2.247 1.257.912.255 1.566.255 3.098-.001 1.067-.179 2.697-.557 3.62-.84.924-.284 1.714-.478 1.755-.431.042.047.154.448.249.892.166.776.117.83-1.271 1.406-.795.329-2.496.769-3.78.977-1.285.209-2.693.368-3.13.354-.436-.014-1.264-.136-1.84-.27zm2.151-15.59c4.793-.823 5.046-.896 4.757-1.369-.168-.275-.718-.757-1.222-1.07-.645-.402-1.318-.566-2.267-.552-.743.01-1.978.228-2.745.483-.768.255-1.803.821-2.302 1.258-.498.438-1.165 1.161-1.483 1.607-.392.551-.453.764-.189.662.214-.082 2.667-.54 5.451-1.019zm30.796 14.985c-.17-.206-.426-1.486-.568-2.845-.141-1.358-.18-3.482-.084-4.718.096-1.237.278-2.382.406-2.544.14-.178-.095-1.488-.593-3.307-.465-1.697-.883-3.964-.956-5.19-.126-2.13-.113-2.192.648-2.953.533-.533 1.161-.835 1.993-.96.668-.1 1.349-.1 1.512.002.164.101.6.858.968 1.68.572 1.278.653 1.77.546 3.35-.096 1.408-.36 2.35-1.104 3.932l-.977 2.08-.045 5.208c-.038 4.491-.109 5.307-.514 5.924-.258.393-.57.715-.695.715-.124 0-.366-.168-.537-.374zm1.056-13.934c.156-.789.285-2.181.286-3.094.001-.913-.088-2.044-.199-2.514l-.2-.854-.201 1.059c-.11.582-.207 2.417-.216 4.079-.008 1.66.044 2.962.115 2.89.072-.072.259-.776.415-1.566zm-1.221-1.236a999.126 999.126 0 0 1-.247-2.977c-.03-.364-.08-.959-.113-1.323-.055-.613-.076-.623-.287-.132-.125.291-.236 1.216-.246 2.055-.01.838.18 2.237.422 3.108s.49 1.584.553 1.584c.062 0 .025-1.042-.082-2.315zm3.613-1.412c.203-.758.239-1.568.1-2.237l-.219-1.048-.199 1.623c-.11.893-.386 2.254-.615 3.025-.23.77-.407 1.529-.394 1.684.012.156.244-.199.516-.788.271-.59.636-1.606.811-2.26zm-.577-2.938c.011-.683-.081-1.305-.207-1.382-.125-.078-.363 1.05-.529 2.507-.166 1.457-.288 2.912-.27 3.234.016.322.244-.247.507-1.266.262-1.019.487-2.41.499-3.093zm-2.301-1.872c-.053-.112-.207-.135-.342-.05-.135.083-.233.948-.218 1.922l.029 1.77.313-1.72c.173-.946.27-1.81.218-1.922zm-1.253-.153c-.067-.068-.302.309-.522.836-.22.527-.395 1.17-.388 1.43.007.259.242-.118.522-.837.281-.719.456-1.362.388-1.43zm2.401.02c-.082-.083-.22-.078-.307.01-.088.086-.059.672.064 1.3l.222 1.142.085-1.152c.047-.633.018-1.219-.064-1.3zm-18.603 21.078c-.618-.306-1.429-.919-1.8-1.36-.373-.443-.998-1.413-1.39-2.156-.655-1.242-.713-1.599-.713-4.415v-3.063l1.111-2.228c.611-1.226 1.64-2.824 2.284-3.552.646-.727 1.836-1.72 2.646-2.206 1.073-.645 1.903-.923 3.064-1.028 1.006-.092 1.891-.021 2.404.191.447.185 1.046.634 1.332.998.34.432.52 1.069.52 1.836 0 1.066-.137 1.32-1.497 2.745-1.417 1.485-1.525 1.546-1.982 1.132-.469-.424-.468-.465.042-1.29.29-.47.527-.979.527-1.133 0-.155-.187-.468-.416-.697-.272-.272-.894-.415-1.8-.415-.95 0-1.805.21-2.725.668-1.196.596-1.403.83-1.923 2.182-.32.834-.648 2.295-.73 3.249-.1 1.19-.015 2.185.273 3.175.23.793.786 1.939 1.234 2.547.55.747 1.208 1.257 2.025 1.569 1.043.398 1.38.417 2.437.135.676-.18 1.704-.606 2.286-.946.583-.341 1.628-1.121 2.323-1.734.695-.612 1.804-1.87 2.464-2.796 1.078-1.51 1.253-1.65 1.713-1.363.281.176.512.417.512.535 0 .119-.497.954-1.104 1.855-.607.902-1.9 2.427-2.872 3.39-.973.962-2.52 2.26-3.437 2.882-.917.623-2.203 1.294-2.858 1.491-.655.197-1.558.358-2.008.358-.45 0-1.324-.25-1.942-.556zm3.407-4.352c-.637-.19-1.51-.682-1.942-1.092-.432-.41-.938-1.044-1.124-1.408-.186-.364-.42-1.215-.518-1.892-.098-.677-.042-2.017.125-2.978.168-.96.387-1.798.488-1.86.101-.063.343-.016.537.104.293.181.294.514.002 1.98-.284 1.428-.287 1.999-.019 3.006.183.684.652 1.579 1.044 1.99.391.41 1.218.88 1.836 1.046.775.208 1.125.444 1.125.76 0 .252-.09.511-.199.575-.109.064-.719-.04-1.355-.23zm-5.802-14.194c-.175-.175-.317-.568-.317-.874 0-.305.142-.698.317-.873.175-.174.571-.317.881-.317.33 0 .71.273.917.659.307.574.291.727-.129 1.19-.264.293-.677.532-.916.532a1.23 1.23 0 0 1-.753-.317zm2.844-2.496c-.145-.383-.194-.919-.108-1.19.087-.273.403-.627.702-.787.383-.205.724-.21 1.15-.016.333.152.678.505.767.786.089.28.043.824-.103 1.207-.217.572-.433.696-1.204.696-.77 0-.986-.124-1.204-.696zm4.524-.48c-.175-.21-.279-.656-.231-.992.062-.437.287-.633.796-.692.485-.056.795.078.98.422.198.371.164.655-.13 1.075-.22.313-.556.57-.749.57-.192 0-.492-.172-.666-.383z" style="fill:#2e2121;fill-opacity:1;stroke-width:1"/></clipPath><filter id="a" width="1" height="1" x="0" y="0" style="color-interpolation-filters:sRGB"><feGaussianBlur stdDeviation=".001"/></filter></defs><path d="M115.123 169.624c-.241-.097-.323-.974-.3-3.22.017-1.698.106-4.278.198-5.733l.168-2.646.983-.082c.908-.075.995-.156 1.142-1.058.088-.537.21-1.274.274-1.638.063-.364.291-3.46.508-6.88.216-3.42.468-7.348.56-8.73.098-1.476.328-2.77.555-3.134.293-.468.529-.576.961-.438.315.1 1.823.2 3.351.223 2.545.038 2.897.107 4.196.826.78.432 1.837 1.266 2.348 1.853.512.586 1.217 1.68 1.566 2.43.353.755.709 2.135.798 3.095.094 1.007.025 2.427-.164 3.39-.18.913-.613 2.224-.963 2.914-.35.691-.999 1.67-1.442 2.174-.443.505-1.42 1.224-2.17 1.598-.865.431-1.802.678-2.567.677-.663 0-1.626-.118-2.14-.26-.515-.144-1.487-.61-2.162-1.039-1.01-.64-1.254-.707-1.38-.378-.084.22-.153 1.392-.153 2.606v2.206l.811.178c.447.098.885.368.974.6.09.232.013 2.096-.17 4.143-.196 2.196-.505 4.085-.754 4.61-.232.491-.789 1.116-1.237 1.389-.528.322-1.28.49-2.138.477-.727-.01-1.471-.08-1.653-.153zm3.456-5.844c.084-.546.232-1.838.33-2.872.171-1.82.157-1.885-.449-2.047-.344-.092-.769-.169-.944-.17-.175-.003-.38.382-.453.855-.073.473-.207 1.773-.297 2.89-.159 1.972-.146 2.032.453 2.146.338.065.75.134.913.154.163.02.364-.41.447-.956zm7.303-11.697c.558-.284 1.346-.91 1.75-1.389a9.559 9.559 0 0 0 1.203-1.93c.256-.582.547-1.613.646-2.292.1-.685.047-1.863-.12-2.646-.165-.776-.706-2.024-1.202-2.774-.68-1.027-1.264-1.54-2.375-2.083-1.216-.595-1.727-.7-2.925-.6-.799.066-1.52.19-1.605.273-.084.085-.445 2.74-.802 5.902-.606 5.37-.62 5.78-.208 6.236.242.267 1.043.787 1.78 1.154.736.367 1.677.667 2.09.667.415 0 1.21-.233 1.768-.518zm-.885-1.75c-.228-.228-.416-.69-.416-1.026 0-.335.183-.761.405-.946.31-.257.559-.266 1.059-.038.47.214.653.507.653 1.044 0 .411-.143.89-.317 1.064-.175.175-.464.318-.643.318s-.512-.187-.74-.416zm1.284-3.937c-.1-.398-.035-.845.155-1.074.18-.217.536-.394.791-.394.256 0 .607.172.782.382.174.21.278.657.23.993-.066.47-.28.628-.936.692-.725.07-.877-.02-1.022-.599zm-1.284-3.207c-.228-.228-.416-.696-.416-1.039 0-.343.192-.815.425-1.048a.986.986 0 0 1 .992-.257c.313.092.717.357.899.589.181.23.33.584.33.784 0 .2-.123.594-.274.875-.153.288-.551.512-.907.512-.348 0-.82-.187-1.049-.416zm-4.94-4.957c.016-.61-.078-.944-.238-.845-.146.09-.253.842-.238 1.67.02 1.153.076 1.35.238.844.116-.364.224-1.115.238-1.67zm-67.84 28.205c-.29-.068-1.302-.883-2.248-1.81-.946-.926-2.148-1.862-2.672-2.08-.523-.217-1.949-.52-3.168-.672-1.219-.153-4.283-.278-6.81-.278-2.526 0-6.935-.126-9.796-.279-4.283-.23-5.32-.363-5.864-.754-.484-.347-.683-.763-.742-1.543-.067-.903.035-1.16.662-1.66.72-.575.868-.588 5.107-.437 2.4.085 5.973.398 7.937.695 1.965.297 3.93.648 4.366.781.44.134.583.251.32.264-.261.012-1.333-.146-2.382-.352-1.049-.206-3.038-.5-4.42-.652-1.383-.153-3.05-.298-3.705-.323-.655-.024-1.315-.028-1.468-.009-.157.02-.237.467-.185 1.028.088.936.07.963-.317.479-.226-.283-.41-.789-.41-1.125 0-.56-.116-.61-1.374-.61-1.221 0-1.32.04-.883.358.3.22.425.527.323.794-.092.239-.335.435-.54.435-.205 0-.52-.177-.7-.394-.179-.216-.253-.583-.164-.816.104-.268.042-.382-.168-.313-.182.06-.367.407-.41.772-.045.365.104.817.33 1.004.272.226 1.948.418 4.974.57 2.51.127 6.112.355 8.004.507 1.892.152 4.69.457 6.217.677 1.528.22 3.493.595 4.366.834 1.369.375 1.886.719 3.751 2.5 1.734 1.657 2.324 2.067 2.972 2.067.445 0 2.217-.297 3.936-.66 1.72-.363 3.745-.844 4.5-1.068 1.022-.303 1.41-.56 1.522-1.004.082-.327.024-.926-.13-1.33-.153-.404-.27-.935-.258-1.18.011-.246.202.065.423.69.22.624.326 1.436.234 1.803-.11.441-.497.805-1.139 1.073-.534.223-2.464.737-4.29 1.143-1.825.405-3.736.796-4.245.868-.51.072-1.164.076-1.455.007zm-13.648-5.48c-.062-.062-2.355-.3-5.097-.53-2.742-.23-6.426-.418-8.188-.418-2.163 0-3.115.087-2.934.269.148.147 2.106.368 4.352.49 2.247.122 5.86.24 8.031.26 2.171.022 3.897-.01 3.836-.072zm-17.148-2.459c-.254-.437-.276-.43-.284.078-.004.303.08.638.185.744.106.106.234.071.284-.078.05-.149-.034-.484-.185-.744zm142.319 6.164a696.37 696.37 0 0 1-6.086-1.82c-2.692-.815-5.413-1.615-6.046-1.778l-1.152-.296.184-1.24c.102-.68.226-1.281.277-1.334.051-.052.8.143 1.664.435l1.572.53 2.412-3.061 2.412-3.062-1.389-.746c-.764-.41-1.832-1.234-2.374-1.83-.546-.602-1.061-1.494-1.157-2-.094-.504-.1-1.353-.014-1.887.087-.534.376-1.271.643-1.639.267-.367 1.01-.935 1.65-1.263.853-.435 1.63-.596 2.896-.6l1.73-.005-1.456-.79c-.8-.436-1.857-1.223-2.35-1.75l-.895-.959.179-2.28c.098-1.255.249-3.209.334-4.343.149-1.97.193-2.081.981-2.513.638-.35 1.431-.445 3.494-.42l2.669.031-.12-.627c-.111-.583-.038-.626 1.035-.62.636.002 1.662.235 2.28.515.619.281 1.125.688 1.125.905 0 .217-.12.468-.265.558-.145.09-.264.259-.264.376 0 .117.785.6 1.745 1.072.96.473 2.27 1.362 2.91 1.975.8.766 1.154 1.317 1.13 1.757-.032.564-.05.574-.146.086-.06-.306-.43-.928-.824-1.384-.393-.456-1.41-1.24-2.26-1.745l-1.546-.915-.76.778c-.419.428-.922.778-1.119.778-.196 0-.967-.181-1.711-.402-1.057-.314-1.446-.585-1.768-1.232-.228-.456-.414-.98-.414-1.166 0-.21-.54-.405-1.428-.516-.785-.098-1.827-.095-2.315.007-.488.102-1.157.357-1.487.566l-.6.38.83 1.033c.456.568 1.023 1.101 1.26 1.185.238.083.135-.094-.229-.395-.597-.494-.532-.486.662.085a50.06 50.06 0 0 0 2.778 1.2c.8.313 2.586.868 3.969 1.234 1.382.366 3.131.666 3.887.666.755 0 1.447.12 1.537.265.09.146.467.265.837.265.495 0 .632.106.514.397l-.3.738c-.105.257.923.487 4.167.934 2.369.326 5.083.755 6.032.955.95.2 2.23.498 2.845.664.924.249 1.118.412 1.118.942s-.194.693-1.12.943c-.942.253-1.479.213-3.392-.256-1.25-.307-3.216-.67-4.37-.808a63.114 63.114 0 0 0-4.066-.329c-1.9-.076-1.975-.056-2.166.582-.172.574-.194.538-.168-.264.018-.51.01-1.373-.016-1.918-.026-.546-.167-.993-.312-.993-.146 0-.267.209-.269.463-.002.255-.23 1.356-.508 2.448-.277 1.091-.586 2.193-.686 2.447-.106.272-.06.463.112.463.16 0 .53-.238.822-.529.29-.291.529-.413.529-.27 0 .142-.29.448-.645.68-.355.233-1.218.511-1.918.619l-1.274.195.86.203c.473.111.86.26.86.329 0 .07-.133.655-.296 1.302-.163.646-.398 1.175-.523 1.175s-1.007-.293-1.96-.652c-.953-.358-2.617-.835-3.699-1.058-1.081-.223-2.596-.405-3.366-.402-.77.002-1.694.152-2.053.334-.369.186-.76.704-.899 1.189-.2.7-.153.962.256 1.414.276.306 1.037.824 1.692 1.151.655.328 2.739 1.106 4.63 1.728 1.892.623 3.857 1.343 4.366 1.602.51.258 1.3.866 1.756 1.352.457.486 1.037 1.292 1.289 1.791.35.695.43 1.346.336 2.778-.076 1.165-.328 2.27-.67 2.929-.3.582-.893 1.388-1.318 1.79-.424.404-1.178.85-1.676.993-.497.143-1.203.251-1.567.241-.365-.01-1.2-.17-1.854-.356zm2.064-2.822c.569-.198.986-.629 1.362-1.406.298-.617.543-1.628.543-2.248 0-.879-.162-1.29-.732-1.86-.402-.401-1.38-.946-2.173-1.21l-1.44-.478-1.145 1.297a79.667 79.667 0 0 0-2.344 2.819c-.832 1.057-1.092 1.563-.85 1.656.192.073 1.54.48 2.995.905 1.455.425 2.717.78 2.805.792.087.01.528-.11.979-.267zm-5.792-4.741c1.595-1.926 2.262-2.91 1.97-2.91-.242 0-.869.499-1.392 1.11-.523.61-1.517 1.815-2.208 2.679-.691.863-1.257 1.674-1.257 1.8 0 .127.107.231.238.231s1.323-1.31 2.649-2.91zm-1.9-.198c1.146-1.42 2.175-2.729 2.284-2.91.125-.207.05-.332-.198-.332-.22 0-1.328 1.14-2.463 2.535-1.136 1.393-2.16 2.703-2.277 2.91-.14.25-.081.376.178.376.215 0 1.328-1.16 2.475-2.58zm10.896-13.446c.205-.193.648-1.572.983-3.064.336-1.492.584-2.723.553-2.736-.032-.013-1.065-.223-2.296-.468-1.617-.321-2.289-.363-2.42-.15-.1.163-.374 1.337-.606 2.61-.233 1.273-.424 2.565-.424 2.872 0 .319-.17.557-.397.557-.218 0-.397-.039-.397-.086 0-.047.244-1.437.54-3.087.298-1.65.48-3.16.406-3.354-.074-.194-.369-.352-.654-.352-.414 0-.574.28-.795 1.389-.152.764-.41 2.193-.575 3.175-.202 1.21-.418 1.786-.669 1.786a.37.37 0 0 1-.37-.368c0-.202.239-1.525.53-2.94.29-1.414.53-2.78.53-3.035 0-.312-.412-.616-1.258-.928-.69-.255-1.894-.815-2.672-1.244-.779-.43-1.448-.743-1.486-.697-.04.046-.206 1.011-.37 2.145-.165 1.134-.3 2.542-.3 3.13 0 .837.164 1.22.764 1.774.42.39.959.864 1.196 1.054.238.191.877.539 1.419.772.542.234 2.058.756 3.368 1.16 1.816.56 2.695.7 3.704.586.727-.082 1.49-.307 1.696-.5zm4.786-3.554c0-.388-.176-.53-.661-.53-.364 0-.662.05-.662.112 0 .06-.072.299-.16.529-.126.326.02.418.66.418.647 0 .823-.113.823-.529zm0-1.058c0-.146-.179-.265-.397-.265-.218 0-.397.12-.397.265 0 .145.179.264.397.264.218 0 .397-.119.397-.264zm-3.503-2.299c-.253-.066-.729-.068-1.058-.005-.33.064-.122.118.46.12.582.004.851-.048.598-.114zm-2.125-.242c-.088-.088-.316-.098-.507-.021-.211.084-.148.147.16.16.279.011.435-.051.347-.14zM53.262 164.484a.455.455 0 0 1 .067-.532c.134-.134 1.428-.47 2.874-.744 1.446-.275 3.314-.585 4.15-.69 1.28-.158 1.522-.123 1.522.221 0 .225-.208.47-.463.544-.254.074-2.029.439-3.943.811-1.914.373-3.604.678-3.755.678-.15 0-.354-.13-.452-.288zm4.38-.802c.946-.174 1.565-.368 1.377-.433-.189-.064-1.38.086-2.646.333-1.267.248-2.402.543-2.523.656-.12.113.296.106.926-.017.63-.123 1.92-.365 2.866-.539zm2.981-.671c-.179-.073-.536-.077-.793-.01-.258.067-.111.126.325.132.437.005.648-.05.468-.122zm-10.485.254c-.093-.093-.169-.513-.169-.934 0-.42-.131-1.286-.292-1.924-.16-.638-.234-1.315-.163-1.506.071-.192.376.184.683.844.305.655.557 1.69.56 2.3.003.61-.097 1.171-.222 1.249-.125.077-.304.064-.397-.029zm1.418-.821c0-.117.143-.355.318-.53.175-.174.54-.317.813-.317.33 0 .466-.155.405-.463-.064-.332-.352-.467-1.01-.477-.65-.01-.946-.146-1.007-.465-.063-.323.145-.499.726-.615.548-.11.814-.319.814-.64 0-.289-.228-.512-.575-.563-.316-.046-.626-.241-.69-.433-.062-.191.137-.413.443-.494.332-.086.557-.359.557-.673 0-.465-.118-.507-.992-.352-.546.097-1.19.234-1.43.304-.241.07-.638.63-.881 1.243-.244.613-.693 1.382-.997 1.71-.38.407-.854.593-1.5.588-.52-.004-2.256-.35-3.857-.77-1.6-.42-2.747-.773-2.546-.787.2-.013 1.7.291 3.335.676 1.804.425 3.248.63 3.677.523.532-.134.861-.528 1.337-1.604.346-.784.852-1.544 1.123-1.69.27-.144.936-.346 1.48-.448.884-.166.987-.27.987-.997 0-.656-.378-1.188-1.98-2.79l-1.98-1.98.808-1.412c.705-1.233.873-1.378 1.318-1.14.311.167.51.175.51.02 0-.139-.532-3.493-1.183-7.454s-1.236-7.255-1.3-7.32c-.065-.064-.664.125-1.33.42-.668.295-1.213.468-1.213.385 0-.083.506-.96 1.124-1.948.619-.988 1.389-1.921 1.712-2.073.323-.153 1.304-.463 2.18-.69.876-.227 2.696-.517 4.043-.644 1.403-.133 3.428-.133 4.738 0 1.258.127 2.984.492 3.836.81 1.13.422 1.985 1.015 3.16 2.19 1.17 1.17 1.777 2.044 2.22 3.198.379.99.656 2.401.736 3.75.1 1.707.011 2.54-.426 3.968-.305.994-1.036 2.54-1.625 3.437-.59.896-1.783 2.288-2.653 3.094-.87.805-2.453 1.894-3.519 2.421-1.545.764-2.36.99-4.02 1.116l-2.082.157.91.771c.5.424 1.26.956 1.689 1.182.428.226 1.194.438 1.701.472.63.042 1.122.294 1.55.792.346.4 1.218.953 1.94 1.228.722.274 1.936.495 2.698.492.778-.003 1.865-.223 2.476-.5.6-.272 1.284-.772 1.521-1.112.238-.339.432-1.058.432-1.599 0-.54-.113-1.28-.252-1.644-.138-.365-.502-.797-.809-.961-.306-.164-.907-.222-1.335-.128-.529.116-.779.333-.779.674 0 .316.246.565.661.67.364.09.853.092 1.088.001.324-.124.385-.052.25.303-.096.256-.437.852-.756 1.324-.48.707-.753.858-1.558.86-.712 0-1.09-.159-1.39-.587-.226-.323-.409-.889-.406-1.256.004-.368.225-1.15.492-1.738.267-.589.863-1.387 1.325-1.776.461-.388 1.24-.781 1.732-.873.6-.113 1.214-.015 1.877.3.684.324 1.136.797 1.476 1.546.292.643.492 1.695.495 2.608.003.841-.16 1.925-.361 2.409-.202.484-.817 1.328-1.366 1.877-.549.55-1.544 1.244-2.212 1.545-.877.395-1.825.558-3.414.587-1.489.027-2.66-.112-3.621-.43-1.21-.398-1.701-.427-3.298-.19-1.738.258-1.864.32-1.704.841.095.31.19.585.213.614.022.028.514-.049 1.092-.17a35.848 35.848 0 0 1 2.462-.394c1.264-.155 1.401-.124 1.32.302-.076.391-.79.6-4.057 1.191-2.181.394-4.353.722-4.826.728-.473.006-.86-.084-.86-.2zm6.747-1.112.794-.202-.926-.012c-.51-.007-1.164.09-1.455.214-.48.207-.468.227.132.215a7.811 7.811 0 0 0 1.455-.215zm2.056-.438c-.18-.072-.536-.077-.794-.01-.257.067-.11.127.326.132.436.005.647-.05.468-.122zm-7.48-.89c0-.16-.295-.198-.727-.095-.4.096-.777.218-.838.27-.06.052.267.095.728.095.46 0 .837-.121.837-.27zm5.667-.785c.279-.002.423-.088.32-.191-.104-.103-.69-.153-1.302-.111-.612.042-1.232.201-1.377.354-.184.193.058.228.793.114.583-.09 1.287-.165 1.566-.166zm-1.076-1.09c-.415-.274-.893-.498-1.063-.5-.17 0-.369-.15-.442-.332-.073-.182-.143.037-.154.485-.012.45.032.87.097.935.066.065.613.071 1.217.014l1.099-.105zm-5.12-.236a.265.265 0 0 0-.264-.265.265.265 0 0 0-.265.265.265.265 0 0 0 .53 0zm8.491-1.955c-.168-.203-.599-.424-.958-.493-.36-.069-.654-.086-.654-.038 0 .048.328.265.728.482.4.217.831.4.958.406.127.006.094-.155-.074-.357zm-5.58-6.872c0-.198-.655-3.943-1.456-8.324-.8-4.38-1.455-8.087-1.455-8.239 0-.151-.178-.275-.397-.275-.218 0-.397.086-.397.19 0 .104.604 3.825 1.342 8.268.738 4.443 1.389 8.227 1.447 8.41.058.181.288.33.51.33.223 0 .406-.162.406-.36zm1.85.294c0-.037-.533-3.923-1.183-8.636-.65-4.713-1.24-8.627-1.31-8.697-.07-.07-.405-.057-.745.028l-.618.155 1.393 7.748c.766 4.262 1.461 8.135 1.544 8.608.089.507.309.86.536.86.212 0 .384-.03.383-.066zm5.22-1.264c.906-.414 2.237-1.305 2.959-1.98 1.063-.994 1.367-1.481 1.6-2.567.208-.97.206-1.786-.006-2.957-.162-.89-.603-2.271-.981-3.07-.378-.8-1.205-2.008-1.838-2.684-.642-.686-1.735-1.481-2.471-1.798-.727-.313-2.333-.699-3.57-.859-1.238-.16-2.287-.244-2.332-.188-.046.057.481 3.913 1.17 8.57.69 4.656 1.266 8.503 1.281 8.549.015.045.594.005 1.285-.091.691-.095 1.998-.511 2.903-.925zm-4.326-6.78c-.097-.387-.057-.893.09-1.125.145-.232.466-.462.712-.51.246-.049.62.055.832.23.211.176.384.579.384.896 0 .316-.143.719-.317.893-.175.175-.59.318-.921.318-.433 0-.654-.2-.78-.703zm85.015 18.682c-.7-.118-1.902-.412-2.673-.654-.77-.243-1.983-.88-2.696-1.418-.712-.538-1.685-1.627-2.16-2.42-.476-.793-.989-1.86-1.14-2.372-.152-.511-.345-1.907-.43-3.102-.091-1.302-.022-2.835.174-3.83.18-.912.543-2.077.808-2.59.265-.513.938-1.373 1.496-1.911s1.73-1.312 2.602-1.72c1.396-.652 1.892-.74 4.101-.733 1.97.007 2.775.128 3.723.56.665.302 1.64.994 2.166 1.535.526.542 1.143 1.532 1.37 2.2.228.668.414 1.77.414 2.448v1.233l-2.183-.48c-1.2-.265-4.13-.841-6.51-1.281-2.379-.44-4.492-.8-4.696-.8-.203 0-.37.216-.37.478 0 .405.457.55 2.977.948 1.638.259 4.465.762 6.284 1.119 1.82.356 3.516.712 3.77.79.255.077.464.315.464.528a.62.62 0 0 1-.376.532c-.207.079-1.904-.16-3.77-.53a271.75 271.75 0 0 0-6.555-1.204c-1.737-.292-3.225-.465-3.305-.385-.08.08-.133 1.06-.117 2.177.02 1.401.211 2.503.616 3.56.323.841.969 2.031 1.436 2.644.468.613 1.315 1.375 1.882 1.693.567.318 1.762.706 2.655.862.893.155 2.537.282 3.653.282h2.029v.898c0 .575-.151.956-.419 1.058-.23.089-1.212.147-2.183.13-.97-.017-2.337-.127-3.037-.245zm5.638-15.4c-.001-.183-.234-.713-.52-1.18-.284-.468-1.028-1.11-1.652-1.43-.697-.355-1.825-.628-2.922-.707-1.276-.092-2.107-.005-2.91.304-.618.237-1.48.718-1.916 1.068l-.793.636 1.322.181c.727.1 3.048.454 5.158.786 2.11.332 3.926.619 4.035.638.11.019.198-.115.198-.297zm-70.499 11.409c-.575-.135-1.608-.606-2.295-1.046-.686-.441-1.538-1.182-1.892-1.647-.354-.465-.908-1.364-1.23-1.998-.323-.634-.755-1.943-.96-2.91-.205-.967-.375-2.498-.377-3.402a9.318 9.318 0 0 1 .547-3.118c.35-.938 1.081-2.046 2.008-3.048.949-1.024 2.026-1.85 3.087-2.366.896-.436 2.322-.897 3.168-1.026.877-.132 2.067-.134 2.769-.003.677.127 1.67.52 2.206.876.617.408 1.222 1.16 1.65 2.047.371.772.75 1.72.843 2.107.166.698.152.706-1.642.884-.995.099-3.972.466-6.616.817-2.645.35-4.937.638-5.094.638-.157 0-.285.238-.285.529 0 .291.09.528.198.526.11-.002 2.178-.292 4.597-.645 2.418-.353 5.425-.725 6.68-.827 1.556-.126 2.283-.095 2.283.097 0 .155-.187.469-.415.698-.23.228-.795.418-1.257.42-.463.004-2.15.179-3.752.39-1.6.212-4.18.58-5.733.817l-2.823.433.135.963c.074.53.321 1.56.549 2.287.228.728.684 1.752 1.013 2.277.33.524 1.09 1.373 1.69 1.887.6.513 1.61 1.079 2.247 1.257.912.255 1.566.255 3.098-.001 1.067-.179 2.697-.557 3.62-.84.924-.284 1.714-.478 1.755-.431.042.047.154.448.249.892.166.776.117.83-1.271 1.406-.795.329-2.496.769-3.78.977-1.285.209-2.693.368-3.13.354-.436-.014-1.264-.136-1.84-.27zm2.151-15.59c4.793-.823 5.046-.896 4.757-1.369-.168-.275-.718-.757-1.222-1.07-.645-.402-1.318-.566-2.267-.552-.743.01-1.978.228-2.745.483-.768.255-1.803.821-2.302 1.258-.498.438-1.165 1.161-1.483 1.607-.392.551-.453.764-.189.662.214-.082 2.667-.54 5.451-1.019zm30.796 14.985c-.17-.206-.426-1.486-.568-2.845-.141-1.358-.18-3.482-.084-4.718.096-1.237.278-2.382.406-2.544.14-.178-.095-1.488-.593-3.307-.465-1.697-.883-3.964-.956-5.19-.126-2.13-.113-2.192.648-2.953.533-.533 1.161-.835 1.993-.96.668-.1 1.349-.1 1.512.002.164.101.6.858.968 1.68.572 1.278.653 1.77.546 3.35-.096 1.408-.36 2.35-1.104 3.932l-.977 2.08-.045 5.208c-.038 4.491-.11 5.307-.514 5.924-.258.393-.57.715-.695.715-.124 0-.366-.168-.537-.374zm1.056-13.934c.156-.789.285-2.181.286-3.094.001-.913-.088-2.044-.199-2.514l-.2-.854-.201 1.059c-.11.582-.207 2.417-.216 4.079-.008 1.66.044 2.962.115 2.89.072-.072.259-.776.415-1.566zm-1.221-1.236a999.126 999.126 0 0 1-.247-2.977c-.03-.364-.08-.959-.113-1.323-.055-.613-.076-.623-.287-.132-.125.291-.236 1.216-.246 2.055-.01.838.18 2.237.422 3.108s.49 1.584.553 1.584c.062 0 .025-1.042-.082-2.315zm3.613-1.412c.203-.758.239-1.568.1-2.237l-.219-1.048-.199 1.623c-.11.893-.386 2.254-.615 3.025-.23.77-.407 1.529-.394 1.684.012.156.244-.199.516-.788.271-.59.636-1.606.811-2.26zm-.577-2.938c.011-.683-.081-1.305-.207-1.382-.125-.078-.363 1.05-.529 2.507-.166 1.457-.288 2.912-.27 3.234.016.322.244-.247.507-1.266.262-1.019.487-2.41.499-3.093zm-2.301-1.872c-.053-.112-.207-.135-.342-.05-.135.083-.233.948-.218 1.922l.029 1.77.313-1.72c.173-.946.27-1.81.218-1.922zm-1.253-.153c-.067-.068-.302.309-.522.836-.22.527-.395 1.17-.388 1.43.007.259.242-.118.522-.837.281-.719.456-1.362.388-1.43zm2.401.02c-.082-.083-.22-.078-.307.01-.088.086-.059.672.064 1.3l.222 1.142.085-1.152c.047-.633.018-1.219-.064-1.3zm-18.603 21.078c-.618-.306-1.429-.919-1.8-1.36-.373-.443-.998-1.413-1.39-2.156-.655-1.242-.713-1.599-.713-4.415v-3.063l1.111-2.228c.611-1.226 1.64-2.824 2.284-3.552.646-.727 1.836-1.72 2.646-2.206 1.073-.645 1.903-.923 3.064-1.028 1.006-.092 1.891-.021 2.404.191.447.185 1.046.634 1.332.998.34.432.52 1.069.52 1.836 0 1.066-.137 1.32-1.497 2.745-1.417 1.485-1.525 1.546-1.982 1.132-.469-.424-.468-.465.042-1.29.29-.47.527-.979.527-1.133 0-.155-.187-.468-.416-.697-.272-.272-.894-.415-1.8-.415-.95 0-1.805.21-2.725.668-1.196.596-1.403.83-1.923 2.182-.32.834-.648 2.295-.73 3.249-.1 1.19-.015 2.185.273 3.175.23.793.786 1.939 1.234 2.547.55.747 1.208 1.257 2.025 1.569 1.043.398 1.38.417 2.437.135.676-.18 1.704-.606 2.286-.946.583-.341 1.628-1.121 2.323-1.734.695-.612 1.804-1.87 2.464-2.796 1.078-1.51 1.253-1.65 1.713-1.363.281.176.512.417.512.535 0 .119-.497.954-1.104 1.855-.607.902-1.9 2.427-2.872 3.39-.973.962-2.52 2.26-3.437 2.882-.917.623-2.203 1.294-2.858 1.491-.655.197-1.558.358-2.008.358-.45 0-1.324-.25-1.942-.556zm3.407-4.352c-.637-.19-1.51-.682-1.942-1.092-.432-.41-.938-1.044-1.124-1.408-.186-.364-.42-1.215-.518-1.892-.098-.677-.042-2.017.125-2.978.168-.96.387-1.798.488-1.86.101-.063.343-.016.537.104.293.181.294.514.002 1.98-.284 1.428-.287 1.999-.019 3.006.183.684.652 1.579 1.044 1.99.391.41 1.218.88 1.836 1.046.775.208 1.124.444 1.124.76 0 .252-.089.511-.198.575-.11.064-.719-.04-1.355-.23zm-5.802-14.194c-.175-.175-.317-.568-.317-.874 0-.305.142-.698.317-.873.175-.174.571-.317.881-.317.33 0 .71.273.917.659.307.574.291.727-.129 1.19-.264.293-.677.532-.916.532a1.23 1.23 0 0 1-.753-.317zm2.844-2.496c-.145-.383-.194-.919-.108-1.19.087-.273.403-.627.702-.787.383-.205.724-.21 1.15-.016.333.152.678.505.767.786.089.28.043.824-.103 1.207-.217.572-.433.696-1.204.696-.77 0-.986-.124-1.204-.696zm4.524-.48c-.175-.21-.279-.656-.231-.992.062-.437.287-.633.796-.692.485-.056.795.078.98.422.198.371.164.655-.13 1.075-.22.313-.556.57-.749.57-.192 0-.492-.172-.666-.383z" style="fill:#b1b1b1;fill-opacity:1" transform="translate(-20.9 -128.444)"/><path d="M12.338 109.68a.583.583 0 0 0-.584.583v77.784c0 .324.26.584.584.584h186.67c.323 0 .583-.26.583-.584v-77.784a.583.583 0 0 0-.583-.584zm45.39 19.558c.846 0 1.68.033 2.334.1 1.258.127 2.985.492 3.836.81 1.13.422 1.985 1.014 3.16 2.19 1.17 1.17 1.777 2.043 2.22 3.197.38.99.656 2.402.736 3.75.1 1.708.011 2.541-.426 3.969-.304.993-1.036 2.54-1.625 3.436-.59.897-1.783 2.289-2.652 3.094-.87.805-2.453 1.895-3.52 2.422-1.544.763-2.36.99-4.02 1.115l-2.082.158.91.771c.5.424 1.26.955 1.689 1.181.428.226 1.194.44 1.702.473.63.042 1.121.294 1.55.791.344.401 1.218.954 1.94 1.228.721.274 1.935.496 2.697.493.778-.003 1.865-.223 2.476-.5.6-.273 1.284-.773 1.522-1.112.237-.34.432-1.059.432-1.599s-.114-1.28-.253-1.645c-.138-.364-.502-.797-.809-.96-.306-.165-.907-.222-1.335-.128-.529.116-.778.333-.778.674 0 .316.246.565.66.669.364.091.853.092 1.088.002.325-.125.385-.052.25.302-.096.256-.437.852-.756 1.324-.479.707-.753.859-1.558.86-.711.001-1.09-.158-1.39-.586-.226-.323-.409-.889-.405-1.257.003-.368.224-1.15.491-1.738.267-.588.863-1.387 1.325-1.775.462-.389 1.24-.781 1.732-.874.6-.112 1.214-.015 1.878.3.683.325 1.135.798 1.475 1.546.292.644.492 1.696.496 2.608.003.842-.16 1.926-.362 2.41-.202.483-.817 1.328-1.366 1.877-.548.549-1.544 1.244-2.212 1.545-.877.395-1.825.558-3.414.587-1.489.027-2.66-.113-3.621-.43-1.21-.399-1.701-.427-3.298-.19-1.738.258-1.864.32-1.704.84.095.31.19.586.213.614.022.028.514-.048 1.092-.17a35.855 35.855 0 0 1 2.462-.394c1.264-.154 1.401-.123 1.32.303-.076.391-.79.6-4.057 1.19-2.181.395-4.352.722-4.825.728-.473.006-.86-.084-.86-.2s.142-.355.317-.53c.175-.174.54-.317.813-.317.33 0 .466-.154.406-.463-.065-.331-.353-.466-1.011-.476-.65-.01-.946-.146-1.007-.466-.063-.322.145-.498.726-.615.548-.11.814-.318.814-.64 0-.288-.228-.511-.575-.562-.316-.047-.626-.242-.689-.433-.063-.192.136-.413.442-.494.332-.086.557-.36.557-.673 0-.465-.118-.507-.992-.352-.545.096-1.19.234-1.43.304-.241.07-.638.63-.881 1.242-.244.613-.692 1.383-.997 1.71-.379.407-.854.594-1.5.589-.52-.004-2.256-.35-3.857-.77-1.6-.42-2.747-.773-2.546-.787.2-.013 1.7.29 3.335.676 1.804.425 3.248.63 3.677.522.532-.133.861-.527 1.337-1.603.347-.784.852-1.545 1.123-1.69.27-.145.936-.346 1.48-.448.884-.166.987-.27.987-.997 0-.657-.378-1.188-1.98-2.79l-1.98-1.98.809-1.413c.705-1.232.873-1.377 1.318-1.138.31.166.51.173.51.02 0-.14-.533-3.495-1.184-7.456-.651-3.96-1.236-7.254-1.3-7.319-.065-.064-.664.124-1.33.42-.668.294-1.213.468-1.213.384 0-.083.506-.96 1.124-1.947.619-.988 1.389-1.921 1.712-2.074.323-.152 1.304-.462 2.18-.69.876-.226 2.696-.516 4.043-.644.702-.066 1.559-.1 2.404-.1zm107.635.35c.635.003 1.661.235 2.28.516.618.28 1.124.688 1.124.905 0 .216-.12.468-.265.558-.145.09-.264.258-.264.375 0 .117.785.6 1.745 1.073.96.472 2.27 1.361 2.91 1.975.8.766 1.154 1.317 1.13 1.757-.032.564-.05.574-.146.085-.06-.305-.43-.928-.823-1.383-.393-.456-1.41-1.24-2.26-1.744l-1.546-.916-.761.778c-.418.427-.922.778-1.118.778-.197 0-.968-.182-1.712-.403-1.057-.314-1.446-.584-1.768-1.23-.228-.457-.414-.982-.414-1.167 0-.21-.54-.405-1.428-.516-.785-.098-1.827-.095-2.315.007-.488.102-1.157.356-1.487.566l-.6.38.83 1.032c.456.568 1.023 1.102 1.261 1.185.238.084.134-.094-.23-.394-.596-.494-.532-.486.662.084a50.06 50.06 0 0 0 2.778 1.2c.8.313 2.586.868 3.969 1.234 1.382.366 3.132.666 3.887.666.755 0 1.447.12 1.537.266.09.145.467.265.838.265.494 0 .63.105.513.396l-.3.738c-.104.257.924.488 4.168.934 2.368.326 5.082.756 6.031.956.95.2 2.23.497 2.845.663.924.25 1.118.413 1.118.943s-.194.693-1.12.942c-.942.254-1.478.214-3.391-.256-1.25-.306-3.217-.67-4.371-.807a63.108 63.108 0 0 0-4.066-.33c-1.9-.076-1.974-.056-2.166.583-.172.573-.194.538-.167-.265.017-.509.01-1.372-.017-1.918-.026-.546-.166-.992-.312-.992s-.266.208-.269.463c-.002.255-.23 1.356-.508 2.447-.277 1.092-.585 2.193-.685 2.448-.107.271-.061.463.11.463.162 0 .532-.238.823-.53.29-.29.529-.412.529-.27 0 .142-.29.449-.645.681-.355.232-1.218.51-1.918.618l-1.273.196.86.202c.472.112.86.26.86.33s-.134.655-.297 1.301c-.163.647-.398 1.176-.523 1.176s-1.006-.293-1.96-.652c-.952-.359-2.617-.835-3.699-1.058-1.081-.224-2.596-.405-3.366-.403-.77.002-1.694.153-2.053.334-.369.187-.76.704-.899 1.19-.2.699-.153.961.256 1.414.276.305 1.038.823 1.692 1.151.655.328 2.739 1.105 4.63 1.728 1.892.622 3.857 1.343 4.366 1.601.51.258 1.3.867 1.757 1.352.456.486 1.036 1.292 1.288 1.792.35.695.43 1.346.336 2.778-.076 1.165-.328 2.269-.669 2.928-.3.582-.894 1.388-1.319 1.791-.424.403-1.178.85-1.675.993-.498.142-1.204.25-1.568.24-.365-.01-1.2-.17-1.854-.356a697.366 697.366 0 0 1-6.085-1.82c-2.692-.814-5.413-1.614-6.047-1.777l-1.152-.297.185-1.239c.101-.681.226-1.282.277-1.335.05-.052.8.144 1.664.436l1.57.53 2.413-3.062 2.413-3.061-1.39-.746c-.764-.41-1.832-1.234-2.373-1.831-.547-.602-1.062-1.493-1.158-2-.094-.504-.1-1.352-.013-1.887.086-.534.375-1.271.642-1.638s1.01-.936 1.651-1.263c.852-.436 1.63-.597 2.895-.6l1.73-.005-1.455-.791c-.8-.435-1.858-1.222-2.35-1.75l-.895-.958.178-2.28c.099-1.255.249-3.21.335-4.343.148-1.97.192-2.082.98-2.514.638-.349 1.431-.444 3.494-.42l2.669.032-.12-.627c-.111-.583-.038-.627 1.036-.621zm-65.075 2.955c.484-.056.796.078.98.422.198.37.164.655-.13 1.074-.22.314-.556.57-.748.57-.192 0-.493-.172-.667-.382-.175-.21-.278-.657-.23-.992.061-.437.286-.633.795-.692zm-3.936.03c.187-.004.378.044.59.14.334.153.679.506.768.787.089.28.043.824-.103 1.207-.217.571-.433.696-1.204.696-.77 0-.986-.125-1.204-.696-.145-.383-.194-.92-.108-1.191.087-.272.403-.626.702-.786.192-.103.373-.155.56-.158zm-41.476.203a2.39 2.39 0 0 0-.474.073l-.618.155 1.394 7.748c.766 4.262 1.46 8.135 1.543 8.608.089.507.31.86.536.86.212 0 .384-.03.383-.066 0-.037-.533-3.923-1.183-8.636-.65-4.714-1.24-8.627-1.31-8.697-.034-.035-.136-.05-.27-.044zm1.345.011c-.045.057.481 3.913 1.17 8.57.69 4.656 1.266 8.503 1.281 8.548.016.045.594.005 1.285-.09s1.998-.512 2.903-.925c.906-.414 2.237-1.305 2.96-1.98 1.063-.995 1.366-1.482 1.599-2.567.208-.97.206-1.787-.006-2.957-.161-.89-.603-2.271-.98-3.07-.38-.8-1.206-2.008-1.839-2.684-.641-.686-1.735-1.481-2.471-1.798-.727-.313-2.333-.699-3.57-.859-1.237-.16-2.287-.244-2.332-.188zm-3.738.235c-.219 0-.397.085-.397.19 0 .104.603 3.825 1.341 8.268.738 4.443 1.39 8.227 1.447 8.41.058.181.288.33.51.33.224 0 .406-.162.406-.36 0-.198-.655-3.944-1.455-8.324s-1.456-8.088-1.456-8.24c0-.15-.178-.274-.396-.274zm60.944.582c.274 0 .485.026.567.077.163.101.599.858.967 1.68.573 1.278.653 1.77.546 3.35-.096 1.408-.36 2.35-1.103 3.932l-.978 2.079-.045 5.208c-.038 4.492-.109 5.307-.514 5.925-.258.393-.57.715-.695.715-.124 0-.366-.168-.536-.374-.171-.206-.427-1.486-.568-2.845-.142-1.358-.18-3.482-.085-4.719.096-1.237.278-2.381.406-2.543.14-.178-.095-1.489-.593-3.307-.465-1.697-.883-3.964-.956-5.19-.126-2.13-.112-2.192.649-2.953.532-.533 1.16-.835 1.992-.96.334-.05.672-.075.946-.075zm44.633.525c-.04.046-.205 1.011-.37 2.145-.165 1.134-.3 2.542-.3 3.129 0 .838.165 1.22.764 1.775.42.389.959.864 1.196 1.054.238.19.877.538 1.419.772.542.234 2.058.756 3.368 1.16 1.816.56 2.695.699 3.704.585.728-.082 1.49-.307 1.696-.5.205-.193.648-1.572.983-3.064.336-1.492.584-2.723.553-2.736a125.29 125.29 0 0 0-2.296-.468c-1.617-.322-2.288-.363-2.42-.15-.1.163-.374 1.337-.606 2.61-.233 1.273-.424 2.565-.424 2.871 0 .32-.17.558-.397.558-.218 0-.396-.039-.396-.086 0-.047.243-1.436.54-3.087.297-1.65.48-3.16.405-3.354-.074-.194-.369-.352-.654-.352-.414 0-.574.28-.795 1.389-.152.764-.41 2.192-.575 3.175-.202 1.21-.418 1.786-.669 1.786a.37.37 0 0 1-.369-.368c0-.203.238-1.525.53-2.94.29-1.414.528-2.78.528-3.036 0-.312-.411-.615-1.256-.927-.692-.255-1.894-.815-2.673-1.244-.779-.43-1.448-.743-1.486-.697zm-44.859.483a.232.232 0 0 0-.155.068c-.087.087-.058.673.064 1.3l.222 1.143.085-1.152c.047-.634.018-1.219-.064-1.3v-.001a.204.204 0 0 0-.152-.059zm-2.249.039c-.067-.067-.302.308-.522.835-.22.527-.395 1.171-.388 1.43.007.26.242-.117.522-.836.281-.719.456-1.362.388-1.43zm1.114.054a.307.307 0 0 0-.203.048c-.136.084-.233.949-.218 1.923l.029 1.77.313-1.72c.173-.946.27-1.81.218-1.922a.177.177 0 0 0-.14-.099zm-18.83.434c.33 0 .71.273.917.659.307.574.29.726-.129 1.19-.264.293-.677.532-.916.532a1.23 1.23 0 0 1-.753-.317c-.175-.175-.317-.568-.317-.874 0-.305.142-.698.317-.873.175-.175.572-.317.882-.317zm21.063.155c-.125-.078-.363 1.05-.529 2.507-.165 1.457-.287 2.912-.27 3.234.016.322.245-.247.507-1.266.262-1.019.487-2.41.499-3.093.012-.683-.081-1.305-.207-1.382zm-12.96.429c.411.032.76.103 1.017.21.447.184 1.046.633 1.332.997.34.432.52 1.069.52 1.836 0 1.066-.138 1.32-1.497 2.745-1.417 1.485-1.524 1.546-1.982 1.132-.469-.424-.467-.465.043-1.29.29-.469.526-.98.526-1.133 0-.155-.187-.468-.416-.697-.272-.272-.894-.416-1.8-.416-.95 0-1.805.21-2.725.669-1.196.596-1.403.83-1.922 2.182-.32.834-.649 2.295-.73 3.249-.101 1.19-.016 2.185.272 3.175.23.793.786 1.939 1.234 2.547.55.747 1.208 1.257 2.025 1.569 1.043.398 1.38.417 2.438.135.675-.18 1.704-.606 2.286-.946.582-.341 1.627-1.121 2.322-1.734.695-.612 1.804-1.87 2.464-2.796 1.078-1.51 1.253-1.65 1.713-1.363.282.176.512.417.512.535 0 .119-.497.953-1.104 1.855-.607.901-1.9 2.427-2.872 3.39-.973.962-2.519 2.26-3.436 2.882-.918.623-2.204 1.294-2.86 1.491-.654.197-1.557.358-2.007.358-.45 0-1.323-.25-1.942-.556-.618-.306-1.429-.919-1.8-1.36-.373-.443-.998-1.413-1.39-2.156-.655-1.242-.713-1.599-.713-4.414v-3.064l1.111-2.228c.611-1.226 1.64-2.824 2.284-3.552.646-.727 1.836-1.72 2.646-2.206 1.073-.645 1.903-.924 3.064-1.029.503-.045.976-.05 1.387-.017zm11.239.077-.2 1.058c-.111.583-.208 2.418-.217 4.08-.008 1.66.044 2.961.115 2.89.072-.072.259-.776.415-1.566.157-.789.285-2.181.286-3.094.001-.913-.088-2.044-.198-2.514zm-30.384.34c.495 0 .968.032 1.32.097.676.127 1.669.52 2.205.876.617.408 1.223 1.16 1.65 2.048.372.771.75 1.719.843 2.106.166.698.152.706-1.642.884-.994.098-3.972.466-6.616.817-2.645.35-4.936.638-5.093.638-.157 0-.286.238-.286.529 0 .291.09.528.199.526.109-.002 2.177-.292 4.596-.645 2.419-.353 5.425-.725 6.68-.827 1.556-.126 2.284-.095 2.284.097 0 .155-.188.469-.416.698-.229.228-.795.418-1.257.42-.463.004-2.15.179-3.751.39-1.601.212-4.181.58-5.734.817l-2.823.432.135.964c.074.53.322 1.56.55 2.287.227.728.683 1.752 1.013 2.277.33.524 1.09 1.373 1.689 1.886.6.514 1.61 1.08 2.247 1.258.912.255 1.566.255 3.098-.001 1.068-.179 2.697-.556 3.62-.84.924-.284 1.714-.478 1.756-.431.041.047.153.448.248.892.166.776.117.83-1.271 1.406-.795.329-2.495.769-3.78.977-1.285.209-2.693.368-3.13.354-.436-.014-1.264-.136-1.84-.271-.575-.135-1.607-.606-2.294-1.047-.687-.44-1.539-1.181-1.893-1.646-.354-.465-.907-1.364-1.23-1.998-.323-.634-.755-1.943-.96-2.91-.205-.967-.374-2.498-.377-3.402a9.316 9.316 0 0 1 .547-3.118c.35-.938 1.081-2.046 2.009-3.048.948-1.025 2.025-1.85 3.086-2.366.896-.436 2.322-.897 3.168-1.026.438-.066.956-.1 1.45-.1zm28.831.106c-.038-.018-.096.103-.202.348-.125.29-.236 1.216-.246 2.055-.01.838.18 2.237.422 3.108s.49 1.584.553 1.584c.062 0 .025-1.042-.082-2.315a1008.94 1008.94 0 0 1-.247-2.977c-.03-.364-.08-.959-.113-1.323-.027-.306-.046-.462-.085-.48zm3.94.083-.2 1.623c-.11.892-.386 2.254-.615 3.025-.229.77-.406 1.529-.394 1.684.012.156.244-.2.516-.788.271-.59.637-1.606.811-2.26.203-.758.239-1.567.1-2.236zm5.445.474c.088.002.183.021.291.055.315.1 1.823.202 3.351.224 2.546.038 2.897.107 4.197.827.78.431 1.836 1.265 2.347 1.852.512.586 1.217 1.68 1.566 2.43.353.755.709 2.135.798 3.095.094 1.006.026 2.427-.164 3.39-.18.912-.613 2.224-.963 2.914-.35.691-.999 1.67-1.442 2.174-.443.505-1.42 1.224-2.169 1.598-.866.431-1.803.678-2.568.677-.663 0-1.626-.118-2.14-.26-.514-.144-1.487-.611-2.162-1.039-1.01-.641-1.254-.707-1.38-.378-.084.22-.153 1.392-.153 2.605v2.207l.811.178c.447.098.885.368.974.6.089.232.013 2.096-.17 4.143-.196 2.196-.505 4.085-.754 4.61-.232.49-.788 1.116-1.237 1.39-.528.321-1.28.489-2.138.476-.727-.01-1.471-.08-1.653-.153-.24-.097-.322-.975-.3-3.22.017-1.699.107-4.278.199-5.733l.167-2.646.983-.082c.908-.075.995-.156 1.142-1.058.088-.537.21-1.274.274-1.638.063-.364.291-3.46.508-6.88.216-3.42.469-7.348.56-8.73.098-1.476.328-2.77.555-3.134.22-.351.408-.5.67-.494zm48.07.22a.722.722 0 0 0-.292.052c-.21.084-.148.147.16.16.279.011.435-.051.347-.14-.044-.043-.123-.068-.215-.072zm1.84.264c-.192-.001-.393.015-.558.046-.329.064-.122.118.46.12.582.004.852-.048.599-.114v-.001a2.178 2.178 0 0 0-.501-.051zm-49.972.894c-.145.09-.253.841-.238 1.67.02 1.153.076 1.35.238.844.117-.364.224-1.115.238-1.67.016-.61-.078-.943-.238-.844zm-38.24.039c-.743.01-1.978.228-2.746.483-.767.255-1.803.821-2.302 1.259-.498.437-1.165 1.16-1.483 1.606-.392.551-.453.764-.189.662.214-.082 2.667-.54 5.452-1.019 4.793-.823 5.045-.896 4.756-1.37-.168-.274-.718-.756-1.222-1.07-.644-.401-1.318-.565-2.267-.551zm42.072.911a7.737 7.737 0 0 0-.792.032c-.798.066-1.52.19-1.605.274-.084.084-.445 2.74-.802 5.901-.606 5.37-.62 5.78-.208 6.235.242.268 1.043.788 1.78 1.155.736.367 1.677.667 2.091.667.414 0 1.209-.233 1.767-.518.558-.285 1.346-.91 1.75-1.389a9.563 9.563 0 0 0 1.203-1.93c.256-.582.547-1.614.646-2.292.1-.685.047-1.864-.12-2.646-.165-.777-.706-2.025-1.202-2.774-.68-1.027-1.264-1.54-2.375-2.083-.912-.446-1.427-.616-2.134-.632zm49.746.241c-.218 0-.397.119-.397.265 0 .145.18.264.397.264.219 0 .397-.119.397-.264 0-.146-.178-.265-.397-.265zm-30.294.67c1.97.007 2.775.128 3.722.56.665.302 1.64.993 2.166 1.535.526.542 1.143 1.532 1.37 2.2.228.668.414 1.77.414 2.448v1.233l-2.182-.48c-1.2-.265-4.13-.842-6.51-1.281-2.38-.44-4.493-.8-4.696-.8-.204 0-.37.216-.37.478 0 .405.457.55 2.977.948 1.637.259 4.465.762 6.284 1.118 1.819.357 3.515.712 3.77.79.255.078.463.316.463.53a.62.62 0 0 1-.376.53c-.207.08-1.904-.159-3.77-.53-1.868-.37-4.816-.912-6.554-1.203-1.738-.292-3.226-.465-3.306-.385-.08.08-.132 1.06-.116 2.176.02 1.402.21 2.504.615 3.56.323.842.97 2.032 1.437 2.645.467.613 1.314 1.375 1.881 1.693.568.318 1.763.706 2.655.861.893.156 2.537.283 3.653.283h2.029v.898c0 .574-.15.955-.419 1.058-.23.088-1.212.147-2.183.13-.97-.017-2.337-.128-3.037-.245a24.18 24.18 0 0 1-2.672-.654c-.77-.243-1.984-.88-2.697-1.418-.712-.538-1.684-1.627-2.16-2.42-.475-.794-.989-1.861-1.14-2.372-.152-.512-.345-1.908-.43-3.102-.091-1.302-.021-2.835.174-3.83.18-.912.543-2.077.808-2.59.265-.513.938-1.373 1.496-1.911s1.73-1.312 2.602-1.72c1.396-.652 1.892-.74 4.102-.733zm30.03.124c-.364 0-.662.05-.662.11 0 .061-.072.3-.16.53-.126.326.02.418.661.418.646 0 .822-.113.822-.53 0-.387-.176-.528-.661-.528zm-114.326.309c.246-.049.62.055.832.23.211.176.384.578.384.895 0 .317-.143.72-.317.894-.175.175-.59.318-.921.318-.433 0-.654-.2-.78-.703-.097-.386-.057-.892.09-1.124.145-.232.466-.462.712-.51zm66.662 1.153a.986.986 0 0 1 .53.01c.312.093.716.358.898.59.182.231.33.584.33.784 0 .2-.123.594-.273.875-.154.288-.552.512-.908.512-.348 0-.82-.187-1.049-.416-.228-.229-.415-.696-.415-1.04 0-.342.19-.814.424-1.048.134-.133.293-.223.463-.267zm18.096.447c-1.277-.092-2.108-.005-2.91.303-.619.238-1.481.719-1.917 1.069l-.793.636 1.322.181c.727.1 3.048.454 5.158.786 2.11.332 3.926.618 4.035.637.11.02.198-.114.198-.296s-.234-.712-.52-1.18c-.284-.467-1.028-1.11-1.652-1.428-.696-.356-1.825-.63-2.921-.708zm-48.674.075c.097.019.206.06.303.12.293.182.294.514.002 1.981-.283 1.428-.287 1.998-.019 3.006.183.683.652 1.579 1.044 1.989.391.41 1.218.882 1.836 1.047.775.208 1.125.444 1.125.76 0 .252-.09.51-.199.574-.109.064-.719-.04-1.355-.23-.637-.19-1.51-.683-1.942-1.093-.432-.41-.937-1.043-1.124-1.407-.186-.364-.419-1.215-.517-1.892-.099-.677-.043-2.017.125-2.978.167-.961.386-1.799.487-1.86.051-.032.137-.036.234-.017zm32.337 3.572c.255 0 .606.172.78.382.175.21.28.657.232.993-.067.47-.28.628-.938.691-.724.07-.876-.018-1.021-.598-.1-.398-.035-.845.155-1.075.18-.216.536-.393.792-.393zm-1.784 3.232c.164-.006.35.05.6.163.471.214.654.507.654 1.044 0 .411-.143.89-.317 1.064-.175.175-.464.318-.643.318s-.512-.188-.74-.416c-.23-.229-.416-.69-.416-1.026 0-.336.182-.761.404-.946.155-.129.295-.195.458-.2zm34.754 5.5c-.219 0-1.328 1.14-2.463 2.533-1.136 1.394-2.16 2.704-2.277 2.91-.14.252-.08.377.179.377.214 0 1.327-1.16 2.474-2.58 1.147-1.419 2.176-2.728 2.286-2.91.124-.207.05-.33-.199-.33zm1.784.528c-.242 0-.868.5-1.392 1.11a127.15 127.15 0 0 0-2.208 2.68c-.691.863-1.257 1.673-1.257 1.8s.108.231.239.231c.13 0 1.322-1.31 2.648-2.91 1.596-1.926 2.262-2.91 1.97-2.91zm1.381.45-1.144 1.296a79.653 79.653 0 0 0-2.344 2.82c-.832 1.056-1.092 1.563-.85 1.655.192.073 1.54.48 2.995.906 1.455.424 2.717.78 2.805.791.087.01.528-.109.979-.266.569-.198.986-.629 1.362-1.407.299-.616.543-1.627.543-2.248 0-.878-.162-1.288-.732-1.858-.402-.403-1.38-.947-2.172-1.21zm-104.133.77c0 .047.327.264.727.481.4.217.832.4.959.406.127.006.093-.155-.075-.357-.167-.203-.599-.424-.958-.493-.36-.069-.653-.086-.653-.038zm-35.03 1.44c.622.01 1.426.038 2.486.076 2.401.085 5.973.398 7.937.695 1.965.297 3.93.648 4.366.781.441.134.583.25.32.264-.261.012-1.333-.146-2.382-.352-1.049-.206-3.038-.5-4.42-.653-1.383-.152-3.05-.297-3.704-.322-.655-.025-1.316-.029-1.469-.009-.157.02-.237.466-.185 1.028.088.935.07.963-.317.478-.226-.282-.41-.788-.41-1.124 0-.56-.116-.61-1.374-.61-1.22 0-1.32.039-.883.358.3.22.425.527.323.793-.092.24-.334.436-.54.436-.204 0-.52-.178-.7-.394-.179-.217-.253-.583-.163-.816.103-.268.041-.382-.17-.313-.181.06-.366.407-.41.772-.043.365.105.817.331 1.004.272.225 1.948.418 4.974.57 2.51.127 6.112.355 8.004.507 1.892.152 4.69.457 6.218.677 1.528.22 3.492.595 4.365.834 1.37.374 1.886.719 3.751 2.5 1.734 1.657 2.324 2.067 2.972 2.067.445 0 2.217-.297 3.937-.66 1.72-.364 3.744-.844 4.5-1.068 1.021-.304 1.41-.56 1.521-1.004.082-.328.024-.926-.13-1.33-.153-.404-.27-.936-.258-1.181.011-.245.202.066.423.69.22.625.326 1.437.234 1.804-.11.44-.497.804-1.139 1.073-.534.223-2.464.737-4.29 1.143-1.825.405-3.735.796-4.245.868-.509.072-1.164.075-1.455.007-.29-.069-1.303-.883-2.249-1.81-.946-.926-2.148-1.862-2.671-2.08-.524-.217-1.95-.52-3.169-.672-1.219-.153-4.283-.278-6.81-.278-2.526 0-6.934-.126-9.796-.28-4.283-.229-5.32-.362-5.864-.753-.483-.347-.683-.763-.742-1.543-.067-.903.035-1.16.662-1.66.54-.431.758-.546 2.622-.513zm31.711.385c-.05.006-.092.213-.1.55-.012.448.032.869.097.934.066.065.613.07 1.217.013l1.099-.104-.754-.497c-.415-.274-.893-.499-1.062-.5-.17 0-.37-.15-.443-.332-.018-.045-.037-.066-.054-.064zm-3.825.395a.265.265 0 0 0-.265.264.265.265 0 0 0 .53 0 .265.265 0 0 0-.265-.264zm-30.9.554c-.038.01-.045.14-.049.394-.004.303.08.638.185.744.106.106.234.07.284-.078.05-.15-.034-.484-.185-.744-.127-.219-.196-.326-.235-.316zm96.33.508c-.175-.002-.38.383-.453.856-.073.473-.207 1.773-.297 2.89-.159 1.972-.146 2.032.453 2.146.339.065.75.134.912.153.164.02.365-.41.449-.956.083-.545.23-1.837.328-2.871.172-1.82.159-1.885-.447-2.047-.344-.092-.77-.17-.945-.171zm-67.909.169c.13.056.36.391.59.886.305.654.557 1.69.56 2.3.003.61-.097 1.171-.222 1.249-.125.077-.304.064-.397-.029-.093-.093-.169-.513-.169-.934 0-.42-.131-1.286-.292-1.924-.16-.638-.234-1.316-.163-1.506.018-.048.05-.06.093-.042zm7.958.058c-.613.042-1.233.2-1.378.354-.184.193.058.228.794.114.582-.09 1.286-.165 1.565-.166.279-.002.423-.088.32-.191-.104-.103-.69-.153-1.301-.111zm-4.887.94c-.128-.016-.31 0-.526.052-.4.096-.777.217-.838.27-.06.052.267.095.728.095.46 0 .838-.122.838-.27 0-.08-.075-.13-.202-.146zm-27.394.152c-2.163 0-3.115.087-2.934.268.148.148 2.106.368 4.352.49 2.247.122 5.86.24 8.031.261 2.171.022 3.897-.01 3.836-.072-.061-.061-2.355-.3-5.097-.53-2.742-.229-6.426-.417-8.188-.417zm34.707.828a1.662 1.662 0 0 0-.425.047c-.258.067-.111.127.325.132.437.005.647-.05.468-.122a1.087 1.087 0 0 0-.368-.057zm-1.82.28c-.509-.006-1.164.09-1.455.215-.48.206-.468.227.132.215a7.813 7.813 0 0 0 1.456-.215l.793-.202zm3.423 1.323c.22.032.281.127.281.3 0 .224-.208.47-.463.543-.254.074-2.029.439-3.943.811-1.914.373-3.604.678-3.755.678-.15 0-.354-.13-.452-.288a.454.454 0 0 1 .067-.532c.134-.134 1.428-.47 2.874-.745 1.446-.275 3.314-.584 4.151-.688.64-.08 1.02-.11 1.24-.079zm-1.338.513a1.666 1.666 0 0 0-.426.048c-.257.067-.11.126.326.131.436.005.647-.049.468-.121a1.089 1.089 0 0 0-.368-.058zm-1.237.296c-.189-.064-1.38.086-2.646.333-1.267.248-2.402.543-2.522.656-.121.113.296.106.926-.017.63-.123 1.92-.366 2.865-.54.946-.173 1.565-.367 1.377-.432z" clip-path="url(#b)" style="opacity:.71564;fill:#141414;fill-opacity:.606742;stroke:#fff;stroke-width:0;stroke-opacity:.469072;paint-order:stroke fill markers;filter:url(#a)" transform="translate(-20.9 -128.444)"/></svg>